<svg width="36" height="36" viewBox="0 0 36 36" fill="none" xmlns="http://www.w3.org/2000/svg">
<path d="M7.5 12H28.5" stroke="white" stroke-width="2" stroke-linecap="round"/>
<path d="M10.6152 13.6072C10.6004 13.4018 10.6282 13.1954 10.6967 13.0011C10.7652 12.8068 10.8731 12.6287 11.0134 12.4779C11.1538 12.3271 11.3238 12.2069 11.5127 12.1246C11.7016 12.0424 11.9054 12 12.1114 12H23.8894C24.0954 12 24.2991 12.0424 24.488 12.1246C24.6768 12.2068 24.8467 12.327 24.9871 12.4777C25.1275 12.6284 25.2353 12.8064 25.3039 13.0006C25.3724 13.1948 25.4003 13.4011 25.3857 13.6065L24.1002 31.6065C24.0732 31.9849 23.9039 32.3391 23.6263 32.5977C23.3486 32.8563 22.9833 33 22.6039 33H13.3969C13.0175 33 12.6522 32.8563 12.3746 32.5977C12.0969 32.3391 11.9276 31.9849 11.9007 31.6065L10.6152 13.6072Z" stroke="white" stroke-width="2"/>
<path d="M18 7.5V4.5C18 4.10218 18.158 3.72064 18.4393 3.43934C18.7206 3.15804 19.1022 3 19.5 3H21.75" stroke="white" stroke-width="2" stroke-linecap="round"/>
<path d="M11.0415 8.75325C11.0999 8.40314 11.2805 8.08507 11.5513 7.8556C11.8221 7.62614 12.1656 7.50013 12.5205 7.5H23.4795C23.8346 7.49996 24.1782 7.62588 24.4491 7.85536C24.7201 8.08484 24.9008 8.40301 24.9592 8.75325L25.5 12H10.5L11.0415 8.75325Z" stroke="white" stroke-width="2"/>
</svg>
