<svg width="24" height="24" viewBox="0 0 24 24" fill="none" xmlns="http://www.w3.org/2000/svg">
<path d="M5.00042 21.0002H19.0004M11.5624 3.26617C11.6056 3.18777 11.669 3.1224 11.746 3.07687C11.8231 3.03134 11.9109 3.00732 12.0004 3.00732C12.0899 3.00732 12.1778 3.03134 12.2548 3.07687C12.3319 3.1224 12.3953 3.18777 12.4384 3.26617L15.3904 8.87017C15.4608 8.99993 15.5591 9.1125 15.6781 9.19979C15.7972 9.28708 15.9341 9.34692 16.079 9.37503C16.224 9.40313 16.3733 9.3988 16.5164 9.36235C16.6594 9.32589 16.7926 9.25821 16.9064 9.16417L21.1834 5.50017C21.2655 5.43339 21.3667 5.39439 21.4724 5.38877C21.5781 5.38315 21.6828 5.41121 21.7715 5.46891C21.8602 5.52662 21.9284 5.61098 21.9661 5.70986C22.0038 5.80874 22.0092 5.91704 21.9814 6.01917L19.1474 16.2652C19.0896 16.4748 18.9649 16.6599 18.7924 16.7924C18.6199 16.9248 18.4089 16.9974 18.1914 16.9992H5.81042C5.59276 16.9977 5.38153 16.9252 5.20882 16.7927C5.0361 16.6602 4.91132 16.475 4.85342 16.2652L2.02042 6.02017C1.99267 5.91804 1.99805 5.80974 2.03577 5.71086C2.07348 5.61198 2.14161 5.52761 2.23032 5.46991C2.31904 5.41221 2.42378 5.38415 2.52946 5.38977C2.63515 5.39539 2.73632 5.43439 2.81842 5.50117L7.09442 9.16517C7.20822 9.25921 7.34143 9.32689 7.48449 9.36335C7.62754 9.3998 7.7769 9.40413 7.92182 9.37603C8.06675 9.34792 8.20366 9.28808 8.32272 9.20079C8.44177 9.1135 8.54003 9.00093 8.61042 8.87117L11.5624 3.26617Z" stroke="white" stroke-width="2" stroke-linecap="round" stroke-linejoin="round"/>
</svg>
