<svg width="36" height="36" viewBox="0 0 36 36" fill="none" xmlns="http://www.w3.org/2000/svg">
<path d="M20.925 30.6L29.85 27.825C29.725 27.6 29.544 27.4065 29.307 27.2445C29.07 27.0825 28.801 27.001 28.5 27H20.925C20.25 27 19.7125 26.975 19.3125 26.925C18.9125 26.875 18.5 26.775 18.075 26.625L15.9375 25.9125C15.5375 25.7875 15.25 25.5375 15.075 25.1625C14.9 24.7875 14.875 24.4 15 24C15.125 23.6 15.369 23.306 15.732 23.118C16.095 22.93 16.476 22.899 16.875 23.025L18.45 23.55C18.875 23.675 19.3565 23.775 19.8945 23.85C20.4325 23.925 21.1635 23.975 22.0875 24H22.5C22.5 23.725 22.419 23.4625 22.257 23.2125C22.095 22.9625 21.901 22.8 21.675 22.725L12.9 19.5H10.5V27.75L20.925 30.6ZM20.1375 33.525L10.5 30.825C10.3 31.475 9.906 32 9.318 32.4C8.73 32.8 8.124 33 7.5 33H4.5C3.675 33 2.969 32.7065 2.382 32.1195C1.795 31.5325 1.501 30.826 1.5 30V19.5C1.5 18.675 1.794 17.969 2.382 17.382C2.97 16.795 3.676 16.501 4.5 16.5H12.9C13.075 16.5 13.25 16.519 13.425 16.557C13.6 16.595 13.7625 16.6385 13.9125 16.6875L22.725 19.95C23.55 20.25 24.219 20.775 24.732 21.525C25.245 22.275 25.501 23.1 25.5 24H28.5C29.75 24 30.8125 24.4125 31.6875 25.2375C32.5625 26.0625 33 27.15 33 28.5C33 29.05 32.856 29.4815 32.568 29.7945C32.28 30.1075 31.8365 30.3635 31.2375 30.5625L21.8625 33.4875C21.5875 33.5875 21.3 33.6375 21 33.6375C20.7 33.6375 20.4125 33.6 20.1375 33.525ZM4.5 30H7.5V19.5H4.5V30ZM22.5 17.475L19.5 16.35C19.45 15.15 18.994 14.125 18.132 13.275C17.27 12.425 16.226 12 15 12C14.175 12 13.4185 12.2065 12.7305 12.6195C12.0425 13.0325 11.499 13.576 11.1 14.25H7.875C8.3 12.975 9.0065 11.875 9.9945 10.95C10.9825 10.025 12.151 9.425 13.5 9.15V6H12.75C12.325 6 11.969 5.856 11.682 5.568C11.395 5.28 11.251 4.924 11.25 4.5C11.249 4.076 11.393 3.72 11.682 3.432C11.971 3.144 12.327 3 12.75 3H19.5C20.15 3 20.9315 3.1315 21.8445 3.3945C22.7575 3.6575 23.4635 4.0385 23.9625 4.5375C24.0875 4.6625 24.194 4.819 24.282 5.007C24.37 5.195 24.4135 5.3885 24.4125 5.5875C24.4125 6.0125 24.269 6.375 23.982 6.675C23.695 6.975 23.3385 7.125 22.9125 7.125C22.7125 7.125 22.525 7.081 22.35 6.993C22.175 6.905 22 6.799 21.825 6.675C21.5 6.45 21.1375 6.281 20.7375 6.168C20.3375 6.055 19.925 5.999 19.5 6H16.5V9.15C18.225 9.5 19.6565 10.3565 20.7945 11.7195C21.9325 13.0825 22.501 14.676 22.5 16.5V17.475ZM28.5 15C27.675 15 26.969 14.7065 26.382 14.1195C25.795 13.5325 25.501 12.826 25.5 12C25.5 11.475 25.675 10.8435 26.025 10.1055C26.375 9.3675 27.0125 8.2865 27.9375 6.8625C27.9875 6.8125 28.175 6.7125 28.5 6.5625C28.575 6.5625 28.7625 6.6625 29.0625 6.8625C29.9625 8.2625 30.594 9.3375 30.957 10.0875C31.32 10.8375 31.501 11.475 31.5 12C31.5 12.825 31.2065 13.5315 30.6195 14.1195C30.0325 14.7075 29.326 15.001 28.5 15Z" fill="white"/>
</svg>
