<svg width="36" height="36" viewBox="0 0 36 36" fill="none" xmlns="http://www.w3.org/2000/svg">
<path d="M25.5 22.5V21.7418C25.5002 21.1473 25.7364 20.5772 26.1568 20.1568C26.5772 19.7364 27.1472 19.5002 27.7417 19.5C28.3357 19.5002 28.9053 19.736 29.3256 20.1558C29.7459 20.5755 29.9825 21.1448 29.9835 21.7388L29.9925 27.8888C29.9935 28.5596 29.8622 29.2241 29.6061 29.8442C29.3501 30.4643 28.9743 31.0278 28.5003 31.5025C28.0263 31.9772 27.4633 32.3538 26.8436 32.6108C26.2239 32.8677 25.5596 33 24.8887 33H19.2352C17.6031 32.9999 15.9937 32.6175 14.536 31.8833C13.0783 31.1491 11.8129 30.0836 10.8412 28.7722L7.64248 24.4545C7.37812 24.0981 7.22547 23.6712 7.20384 23.2279C7.18221 22.7847 7.29258 22.345 7.52098 21.9645C7.69643 21.672 7.93626 21.4234 8.22223 21.2374C8.50819 21.0515 8.83278 20.9333 9.17131 20.8916C9.50984 20.85 9.85342 20.886 10.1759 20.9971C10.4984 21.1081 10.7914 21.2913 11.0325 21.5325L12 22.5V12C12 11.4033 12.237 10.831 12.659 10.409C13.0809 9.98705 13.6532 9.75 14.25 9.75C14.8467 9.75 15.419 9.98705 15.841 10.409C16.2629 10.831 16.5 11.4033 16.5 12V20.9062V15.7695C16.5 15.1676 16.7391 14.5903 17.1647 14.1647C17.5903 13.7391 18.1676 13.5 18.7695 13.5C19.0676 13.4999 19.3628 13.5585 19.6382 13.6725C19.9136 13.7865 20.1639 13.9537 20.3747 14.1645C20.5856 14.3752 20.7528 14.6254 20.8669 14.9008C20.981 15.1762 21.0397 15.4714 21.0397 15.7695V21.75V20.9243C21.0397 20.3328 21.2746 19.7656 21.6928 19.3473C22.1109 18.929 22.678 18.6939 23.2695 18.6937C23.861 18.6937 24.4284 18.9287 24.8467 19.347C25.265 19.7653 25.5 20.3327 25.5 20.9243V22.5Z" stroke="white" stroke-width="2" stroke-linecap="round" stroke-linejoin="round"/>
<path d="M24 3V9" stroke="white" stroke-width="2" stroke-linecap="round"/>
<path d="M12 15H4.5V12C6 12 7.5 10.875 7.4805 9C7.461 7.125 6 6 4.5 6V3H31.5V6C30 6 28.539 7.125 28.5195 9C28.5 10.875 30 12 31.5 12V15H21" stroke="white" stroke-width="2" stroke-linecap="round" stroke-linejoin="round"/>
</svg>
